<svg preserveAspectRatio="xMidYMid meet" xmlns="http://www.w3.org/2000/svg" viewBox="16 16 96 96"><path fill="rgb(45, 106, 161)" stroke="none" stroke-width="1.5" stroke-linecap="round" stroke-linejoin="round" stroke-miterlimit="10" d="M64,20.434c-24.023,0-43.566,19.544-43.566,43.566S39.977,107.566,64,107.566 c24.021,0,43.566-19.544,43.566-43.566S88.021,20.434,64,20.434z M65.135,78.381v5.134h-3.111v-4.985 c-2.863-0.05-5.824-0.938-7.551-2.172l1.184-3.308c1.777,1.185,4.344,2.123,7.107,2.123c3.506,0,5.875-2.024,5.875-4.838 c0-2.715-1.926-4.394-5.578-5.874c-5.035-1.975-8.145-4.245-8.145-8.54c0-4.097,2.912-7.207,7.453-7.947v-4.985h3.061v4.788 c2.963,0.099,4.986,0.889,6.418,1.728l-1.234,3.258c-1.037-0.592-3.061-1.678-6.221-1.678c-3.801,0-5.232,2.271-5.232,4.245 c0,2.566,1.828,3.85,6.121,5.627c5.086,2.073,7.652,4.641,7.652,9.033C72.934,73.889,70.219,77.542,65.135,78.381z"></path></svg>