<svg xmlns="http://www.w3.org/2000/svg" height="20" width="25" viewBox="0 0 41 32"><path fill="#000000" d="M41.03 30.899a1.09 1.09 0 0 1-1.079 1.101h-38.872a1.09 1.09 0 0 1-1.079-1.101v-4.27a1.09 1.09 0 0 1 1.079-1.101h38.872a1.09 1.09 0 0 1 1.079 1.101v4.27zM41.03 18.134a1.09 1.09 0 0 1-1.079 1.101h-38.872a1.089 1.089 0 0 1-1.079-1.101v-4.27a1.09 1.09 0 0 1 1.079-1.101h38.872a1.09 1.09 0 0 1 1.079 1.101v4.27zM41.03 5.371a1.09 1.09 0 0 1-1.079 1.101h-38.872a1.09 1.09 0 0 1-1.079-1.101v-4.27a1.09 1.09 0 0 1 1.079-1.101h38.872a1.09 1.09 0 0 1 1.079 1.101v4.27z"></path></svg>