<svg preserveAspectRatio="xMidYMid meet" xmlns="http://www.w3.org/2000/svg" viewBox="0 0 128 128"><path fill="none" stroke="rgb(45, 106, 161)" stroke-width="1.5" stroke-linecap="round" stroke-linejoin="round" stroke-miterlimit="10" d="M118.944,57.469V41.877h-60.23l54.64-6.746l-1.805-7.468L56.661,40.922l-7.74,0.956H9.06v16.031l-0.652-5.283l-3.473,0.838 L9.06,70.542v19.56h33.201l-27.651,3.414l1.647,6.82L58.63,90.103h60.314V70.764l0.573,4.634l3.549-0.858L118.944,57.469z M64.001,83.944c-9.897,0-17.948-8.053-17.948-17.953c0-9.898,8.051-17.95,17.948-17.95c9.898,0,17.95,8.052,17.95,17.95 C81.951,75.891,73.899,83.944,64.001,83.944z"></path><path fill="none" stroke="rgb(45, 106, 161)" stroke-width="1.5" stroke-linecap="round" stroke-linejoin="round" stroke-miterlimit="10" d="M69.634,65.793c-0.529-0.646-1.222-1.198-2.055-1.636c-0.415-0.226-1.171-0.503-2.305-0.843v-7.834 c0.464,0.206,0.84,0.505,1.137,0.906c0.424,0.57,0.71,1.427,0.852,2.546l0.06,0.467l3.511-0.608l-0.051-0.424 c-0.24-2.031-0.964-3.659-2.15-4.839c-0.854-0.842-1.982-1.388-3.357-1.625v-1.517h-2.402v1.515 c-1.581,0.256-2.82,0.84-3.688,1.743c-1.345,1.42-2.028,3.295-2.028,5.573c0,1.281,0.232,2.444,0.69,3.46 c0.467,1.034,1.147,1.85,2.021,2.423c1.02,0.685,2.027,1.166,3.005,1.432v8.792c-0.654-0.215-1.227-0.706-1.738-1.485 c-0.462-0.726-0.79-1.876-0.974-3.417l-0.059-0.493l-3.398,0.745l0.022,0.385c0.1,1.651,0.455,3.065,1.061,4.203 c0.613,1.15,1.356,2.005,2.21,2.542c0.756,0.476,1.723,0.819,2.876,1.023v3.115h2.402v-3.118c1.706-0.193,3.129-0.994,4.232-2.387 c1.174-1.48,1.771-3.357,1.771-5.577c0-0.987-0.144-1.927-0.428-2.795C70.562,67.193,70.151,66.429,69.634,65.793z M62.872,62.602 c-0.743-0.342-1.291-0.766-1.632-1.265c-0.427-0.623-0.644-1.418-0.644-2.362c0-0.934,0.257-1.758,0.766-2.452 c0.394-0.537,0.891-0.906,1.51-1.119V62.602z M66.898,74.074c-0.457,0.63-0.991,1.041-1.624,1.244v-8.045 c0.933,0.425,1.572,0.887,1.905,1.377c0.397,0.591,0.598,1.403,0.598,2.417C67.777,72.257,67.481,73.269,66.898,74.074z"></path></svg>